<?xml version="1.0" encoding="UTF-8" standalone="no"?>
<!-- Created with Inkscape (http://www.inkscape.org/) -->

<svg
   width="246.47659mm"
   height="93.41201mm"
   viewBox="0 0 246.47659 93.41201"
   version="1.1"
   id="svg1"
   xml:space="preserve"
   inkscape:version="1.4 (e7c3feb1, 2024-10-09)"
   sodipodi:docname="smort-logo-symbol.svg"
   inkscape:export-filename="smort-logo.png"
   inkscape:export-xdpi="308.84094"
   inkscape:export-ydpi="308.84094"
   xmlns:inkscape="http://www.inkscape.org/namespaces/inkscape"
   xmlns:sodipodi="http://sodipodi.sourceforge.net/DTD/sodipodi-0.dtd"
   xmlns="http://www.w3.org/2000/svg"
   xmlns:svg="http://www.w3.org/2000/svg"><sodipodi:namedview
     id="namedview1"
     pagecolor="#ffffff"
     bordercolor="#000000"
     borderopacity="0.25"
     inkscape:showpageshadow="2"
     inkscape:pageopacity="0.0"
     inkscape:pagecheckerboard="0"
     inkscape:deskcolor="#d1d1d1"
     inkscape:document-units="mm"
     inkscape:zoom="0.38246593"
     inkscape:cx="99.355255"
     inkscape:cy="452.32787"
     inkscape:window-width="1792"
     inkscape:window-height="973"
     inkscape:window-x="0"
     inkscape:window-y="31"
     inkscape:window-maximized="1"
     inkscape:current-layer="layer1"
     showguides="true"
     inkscape:export-bgcolor="#ffffff00" /><defs
     id="defs1"><linearGradient
       id="swatch48"
       inkscape:swatch="solid"><stop
         style="stop-color:#000000;stop-opacity:1;"
         offset="0"
         id="stop48" /></linearGradient></defs><g
     inkscape:label="Layer 1"
     inkscape:groupmode="layer"
     id="layer1"
     transform="translate(-195.70382,-140.16094)"><rect
       style="fill:#ffffff;fill-opacity:1;stroke-width:0.857511"
       id="rect2"
       width="42.181877"
       height="21.400932"
       x="205.24255"
       y="157.95024"
       ry="8.7910519"
       rx="20.399418" /><path
       id="path1"
       style="fill:#242122;fill-opacity:1;stroke-width:1.00036"
       d="m 253.40224,140.16099 c -0.25676,-0.006 -0.61197,0.48332 -1.23662,1.35806 -1.63613,2.29119 -3.97504,4.36267 -6.14433,5.44152 l -1.77663,0.88367 -2.81534,-1.32033 c -4.29594,-2.01484 -7.13378,-2.79743 -11.729,-3.23495 -6.85462,-0.65265 -15.74049,1.45428 -20.92068,4.96043 -0.62936,0.42597 -1.2818,0.85406 -1.44953,0.95136 -0.16773,0.0973 -1.35977,-0.35118 -2.64945,-0.99632 -2.44048,-1.22083 -4.91746,-3.23765 -6.31227,-5.13922 -0.43687,-0.59562 -0.87217,-1.08583 -0.96687,-1.08883 -0.42971,-0.0156 -0.81496,2.86425 -0.6935,5.1847 0.10892,2.08088 0.26181,2.74512 0.9493,4.13411 0.83927,1.69566 1.80565,2.9124 2.94297,3.70469 l 0.64337,0.44803 -1.34462,2.58744 c -2.58117,4.96907 -3.57501,8.85427 -4.05711,15.85898 -0.33438,4.8583 -0.064,10.01035 0.83767,15.95872 0.91944,6.06569 3.17719,14.13881 4.90875,17.55345 0.36339,0.71658 0.74707,1.19911 0.85266,1.07228 0.10559,-0.12683 0.46881,-1.12344 0.80718,-2.21485 0.80021,-2.58099 2.29723,-5.54329 3.83336,-7.58506 1.71177,-2.27523 5.09198,-5.3824 7.45949,-6.85695 1.09763,-0.68363 1.89917,-1.32578 1.78129,-1.4273 -0.11787,-0.10152 -0.98871,-0.45414 -1.93528,-0.78342 -7.21992,-2.51156 -12.43649,-7.3968 -14.74484,-13.80846 -0.95648,-2.65674 -1.00889,-6.52092 -0.13022,-9.59579 1.28346,-4.49146 3.77888,-9.57705 4.54701,-9.26662 0.21959,0.0888 1.1832,0.34883 2.14147,0.57774 l 1.74201,0.416 -1.34514,1.09554 c -2.97343,2.42109 -4.6274,5.62583 -4.85138,9.39891 -0.25045,4.21909 1.11023,7.82463 4.04161,10.71097 4.1053,4.04221 10.09191,4.98196 15.21458,2.38797 0.72084,-0.36501 1.40367,-0.65864 1.51773,-0.65164 0.11405,0.007 1.10096,1.31287 2.19315,2.90215 1.0922,1.58928 2.1054,2.85419 2.25103,2.81119 0.14562,-0.043 1.0718,-1.45297 2.05827,-3.13314 l 1.79317,-3.05459 1.52807,0.6165 c 3.72962,1.50537 7.33885,1.40285 10.91458,-0.30954 2.09214,-1.00191 4.92676,-3.50949 5.96501,-5.2772 3.48792,-5.93848 1.90309,-13.65455 -3.64215,-17.7338 -0.87864,-0.64635 -1.55463,-1.17674 -1.50223,-1.17874 0.0524,-0.002 1.10397,-0.35465 2.3368,-0.78342 1.23285,-0.42877 2.30562,-0.68879 2.38332,-0.57774 0.0778,0.11106 0.69868,0.97322 1.38028,1.91565 3.22089,4.45345 6.30711,12.72268 6.30711,16.90026 0,0.58822 0.0979,1.0697 0.21755,1.0697 0.11969,0 0.77792,-0.191 1.46296,-0.42426 1.41238,-0.48089 1.36475,-0.087 0.52349,-4.31654 -0.93183,-4.68495 -3.58319,-10.78674 -6.38979,-14.70608 l -1.51567,-2.11666 1.02164,-1.04955 c 1.37203,-1.40905 2.2298,-3.18067 2.60863,-5.3883 0.26653,-1.55311 0.24474,-2.17987 -0.14418,-4.15789 -0.37076,-1.88562 -0.53857,-2.7145 -0.86868,-2.72283 z m -36.85047,19.98638 a 7.9970412,7.9913001 0 0 1 7.99745,7.99124 7.9970412,7.9913001 0 0 1 -7.99745,7.99124 7.9970412,7.9913001 0 0 1 -7.99692,-7.99124 7.9970412,7.9913001 0 0 1 7.99692,-7.99124 z m 20.03702,0 a 7.9970412,7.9913001 0 0 1 7.99693,7.99124 7.9970412,7.9913001 0 0 1 -7.99693,7.99124 7.9970412,7.9913001 0 0 1 -7.99744,-7.99124 7.9970412,7.9913001 0 0 1 7.99744,-7.99124 z" /><path
       d="m 260.05911,202.17574 c -0.61736,-9.3486 -6.2618,-14.28749 -18.78541,-14.28749 -13.22916,0 -18.25624,5.55625 -18.25624,12.87638 0,3.88056 1.41111,7.23194 5.46806,9.78958 3.0868,1.94028 7.14374,3.175 14.46388,4.93889 3.70416,0.88194 6.96736,1.85208 6.96736,4.93888 0,3.2632 -3.61598,4.49792 -7.67292,4.49792 -5.55624,0 -8.99583,-2.38125 -8.99583,-6.43819 h -11.81805 c 0.17639,8.81944 7.58472,15.08124 20.90208,15.08124 12.34721,0 18.96179,-5.37986 18.96179,-14.37569 0,-5.64444 -2.55764,-8.64305 -7.14374,-10.49513 -3.35139,-1.32292 -8.02569,-2.29305 -12.96458,-3.70417 -4.6743,-1.32291 -7.05555,-2.38124 -7.05555,-4.93888 0,-2.55764 2.46944,-3.61597 6.79097,-3.61597 5.20347,0 7.49652,1.4993 8.11388,5.73263 z m 66.58678,30.25068 v -30.07429 c 0,-8.11388 -6.08541,-14.46388 -14.81666,-14.46388 -5.46805,0 -9.3486,2.11667 -11.72985,6.87916 -3.35139,-5.02708 -6.17361,-6.87916 -12.08264,-6.87916 -5.73263,0 -9.78957,1.76389 -12.69999,7.49653 v -6.35 h -10.75971 v 43.39164 h 11.46527 V 206.0563 c 0,-5.64444 2.38125,-8.46666 6.96735,-8.46666 5.02708,0 6.87917,1.76388 6.87917,8.73124 v 26.10554 h 11.46527 v -25.92915 c 0,-5.29166 3.0868,-9.26041 7.32013,-9.26041 4.05695,0 6.79097,3.70416 6.79097,8.90763 v 26.28193 z m 25.75274,-8.46666 c -6.96736,0 -10.49514,-4.40972 -10.49514,-13.22916 0,-8.81944 3.52778,-13.14096 10.49514,-13.14096 6.96735,0 10.49513,4.32152 10.49513,13.14096 0,8.81944 -3.52778,13.22916 -10.49513,13.22916 z m 0,9.61319 c 13.49374,0 22.0486,-9.08402 22.0486,-22.84235 0,-13.84652 -8.46667,-22.84235 -22.0486,-22.84235 -13.75833,0 -22.31319,9.08402 -22.31319,22.84235 0,13.49374 8.29028,22.84235 22.31319,22.84235 z m 37.65897,-1.14653 v -22.57776 c 0,-6.96736 3.43958,-10.49514 10.49513,-10.49514 1.05833,0 2.11667,0.0882 3.175,0.26459 v -11.72986 h -1.49931 c -4.6743,0 -9.08402,0.52917 -12.87638,6.35 v -5.20347 h -10.75972 v 43.39164 z m 41.45129,-17.2861 c 0,5.37986 -2.11666,8.46666 -6.70277,8.46666 -4.6743,0 -6.61458,-3.175 -6.61458,-8.64305 v -17.81527 h 23.98888 v -8.11388 h -23.98888 v -11.72986 h -11.28888 v 38.80554 c 0,9.3486 5.02708,17.46249 17.72707,17.46249 12.25902,0 17.55069,-8.20208 17.55069,-17.3743 v -12.34721 h -10.67153 z"
       id="text1"
       style="font-size:88.1944px;font-family:Coolvetica;-inkscape-font-specification:Coolvetica;fill:#f2b42c;stroke-width:0.933"
       aria-label="smort" /></g></svg>
