<?xml version="1.0" encoding="UTF-8" standalone="no"?>
<!-- Created with Inkscape (http://www.inkscape.org/) -->

<svg
   width="288.61191mm"
   height="56.268024mm"
   viewBox="0 0 288.6119 56.268024"
   version="1.1"
   id="svg1"
   xml:space="preserve"
   inkscape:version="1.4 (e7c3feb1, 2024-10-09)"
   sodipodi:docname="smort-logo-symbol-inv.svg"
   inkscape:export-filename="smort-logo-inv.png"
   inkscape:export-xdpi="308.84094"
   inkscape:export-ydpi="308.84094"
   xmlns:inkscape="http://www.inkscape.org/namespaces/inkscape"
   xmlns:sodipodi="http://sodipodi.sourceforge.net/DTD/sodipodi-0.dtd"
   xmlns="http://www.w3.org/2000/svg"
   xmlns:svg="http://www.w3.org/2000/svg"><sodipodi:namedview
     id="namedview1"
     pagecolor="#ffffff"
     bordercolor="#000000"
     borderopacity="0.25"
     inkscape:showpageshadow="2"
     inkscape:pageopacity="0.0"
     inkscape:pagecheckerboard="0"
     inkscape:deskcolor="#d1d1d1"
     inkscape:document-units="mm"
     inkscape:zoom="0.35693913"
     inkscape:cx="428.64451"
     inkscape:cy="-266.15182"
     inkscape:window-width="1792"
     inkscape:window-height="973"
     inkscape:window-x="0"
     inkscape:window-y="31"
     inkscape:window-maximized="1"
     inkscape:current-layer="layer1"
     showguides="true"
     inkscape:export-bgcolor="#ffffff00" /><defs
     id="defs1"><linearGradient
       id="swatch48"
       inkscape:swatch="solid"><stop
         style="stop-color:#000000;stop-opacity:1;"
         offset="0"
         id="stop48" /></linearGradient></defs><g
     inkscape:label="Layer 1"
     inkscape:groupmode="layer"
     id="layer1"
     transform="translate(-153.56852,-158.73293)"><rect
       style="fill:#ffffff;fill-opacity:1;stroke-width:0.627538"
       id="rect2"
       width="32.167873"
       height="15.029241"
       x="162.25558"
       y="174.65218"
       ry="1.1364722"
       rx="15.556585" /><path
       id="path1"
       style="fill:#242122;fill-opacity:1;stroke-width:0.823673"
       d="m 201.07605,158.73299 c -0.21141,-0.005 -0.50388,0.39795 -1.0182,1.1182 -1.34715,1.88651 -3.27296,3.59212 -5.0591,4.48042 l -1.46284,0.72759 -2.31808,-1.08713 c -3.53718,-1.65897 -5.87379,-2.30334 -9.65739,-2.66358 -5.64393,-0.53738 -12.96035,1.19742 -17.2256,4.0843 -0.5182,0.35074 -1.05541,0.70321 -1.19351,0.78333 -0.13811,0.0801 -1.1196,-0.28915 -2.1815,-0.82035 -2.00943,-1.0052 -4.04892,-2.6658 -5.19737,-4.23151 -0.35971,-0.49042 -0.71813,-0.89405 -0.7961,-0.89652 -0.35382,-0.0128 -0.67102,2.35836 -0.57101,4.26896 0.0897,1.71335 0.21556,2.26027 0.78163,3.40393 0.69103,1.39617 1.48673,2.39801 2.42317,3.05036 l 0.52974,0.3689 -1.10713,2.13043 c -2.12528,4.09142 -2.94358,7.29041 -3.34053,13.05792 -0.27532,4.00021 -0.0527,8.24229 0.68972,13.14004 0.75704,4.99435 2.61602,11.64157 4.04175,14.45311 0.2992,0.59001 0.61512,0.98732 0.70206,0.88289 0.0869,-0.10443 0.386,-0.92502 0.66461,-1.82366 0.65887,-2.12513 1.89149,-4.56422 3.1563,-6.24536 1.40943,-1.87337 4.19262,-4.43175 6.14197,-5.64586 0.90376,-0.56288 1.56373,-1.09161 1.46667,-1.1752 -0.0971,-0.0836 -0.81408,-0.37393 -1.59346,-0.64505 -5.94472,-2.06796 -10.23992,-6.09036 -12.14056,-11.36957 -0.78754,-2.1875 -0.8307,-5.36917 -0.10722,-7.90095 1.05677,-3.69816 3.11144,-7.88552 3.7439,-7.62992 0.18081,0.0731 0.97422,0.28722 1.76324,0.4757 l 1.43433,0.34252 -1.10756,0.90205 c -2.44825,1.99346 -3.81009,4.63217 -3.99451,7.73884 -0.20622,3.4739 0.91414,6.44262 3.32777,8.81917 3.38021,3.32826 8.30944,4.10203 12.52733,1.96619 0.59352,-0.30054 1.15575,-0.5423 1.24966,-0.53654 0.0939,0.006 0.90651,1.08099 1.80579,2.38956 0.89929,1.30858 1.73354,2.35008 1.85345,2.31467 0.1199,-0.0354 0.88249,-1.19634 1.69473,-2.57975 l 1.47646,-2.51508 1.25817,0.50761 c 3.07089,1.23949 6.04264,1.15507 8.98682,-0.25487 1.72262,-0.82495 4.05658,-2.88963 4.91145,-4.34512 2.87187,-4.88961 1.56696,-11.24284 -2.99887,-14.6016 -0.72345,-0.53219 -1.28004,-0.9689 -1.2369,-0.97055 0.0431,-0.002 0.90899,-0.29201 1.92407,-0.64505 1.0151,-0.35304 1.89839,-0.56713 1.96237,-0.4757 0.0641,0.0915 0.57528,0.80133 1.13649,1.5773 2.65201,3.66687 5.19313,10.47556 5.19313,13.91529 0,0.48432 0.0806,0.88076 0.17913,0.88076 0.0986,0 0.64052,-0.15726 1.20456,-0.34932 1.16292,-0.39596 1.12371,-0.0716 0.43103,-3.55414 -0.76724,-3.85748 -2.95031,-8.88155 -5.2612,-12.10865 l -1.24797,-1.74281 0.84119,-0.86417 c 1.1297,-1.16018 1.83597,-2.61889 2.14789,-4.4366 0.21945,-1.2788 0.20151,-1.79486 -0.11871,-3.42351 -0.30528,-1.55258 -0.44345,-2.23506 -0.71526,-2.24192 z m -30.34182,16.45632 a 6.5845787,6.5798516 0 0 1 6.58492,6.57981 6.5845787,6.5798516 0 0 1 -6.58492,6.5798 6.5845787,6.5798516 0 0 1 -6.58448,-6.5798 6.5845787,6.5798516 0 0 1 6.58448,-6.57981 z m 16.49802,0 a 6.5845787,6.5798516 0 0 1 6.58449,6.57981 6.5845787,6.5798516 0 0 1 -6.58449,6.5798 6.5845787,6.5798516 0 0 1 -6.58491,-6.5798 6.5845787,6.5798516 0 0 1 6.58491,-6.57981 z" /><path
       d="m 260.05911,183.60375 c -0.61736,-9.3486 -6.2618,-14.28749 -18.78541,-14.28749 -13.22916,0 -18.25624,5.55625 -18.25624,12.87638 0,3.88056 1.41111,7.23194 5.46806,9.78958 3.0868,1.94028 7.14374,3.175 14.46388,4.93889 3.70416,0.88194 6.96736,1.85208 6.96736,4.93888 0,3.2632 -3.61598,4.49792 -7.67292,4.49792 -5.55624,0 -8.99583,-2.38125 -8.99583,-6.43819 h -11.81805 c 0.17639,8.81944 7.58472,15.08124 20.90208,15.08124 12.34721,0 18.96179,-5.37986 18.96179,-14.37569 0,-5.64444 -2.55764,-8.64305 -7.14374,-10.49513 -3.35139,-1.32292 -8.02569,-2.29306 -12.96458,-3.70417 -4.6743,-1.32291 -7.05555,-2.38125 -7.05555,-4.93888 0,-2.55764 2.46944,-3.61597 6.79097,-3.61597 5.20347,0 7.49652,1.4993 8.11388,5.73263 z m 66.58678,30.25068 v -30.07429 c 0,-8.11388 -6.08541,-14.46388 -14.81666,-14.46388 -5.46805,0 -9.3486,2.11667 -11.72985,6.87916 -3.35139,-5.02708 -6.17361,-6.87916 -12.08264,-6.87916 -5.73263,0 -9.78957,1.76389 -12.69999,7.49652 v -6.34999 h -10.75971 v 43.39164 h 11.46527 v -26.37012 c 0,-5.64444 2.38125,-8.46667 6.96735,-8.46667 5.02708,0 6.87917,1.76389 6.87917,8.73125 v 26.10554 h 11.46527 v -25.92915 c 0,-5.29167 3.0868,-9.26041 7.32013,-9.26041 4.05695,0 6.79097,3.70416 6.79097,8.90763 v 26.28193 z m 25.75274,-8.46666 c -6.96736,0 -10.49514,-4.40972 -10.49514,-13.22916 0,-8.81944 3.52778,-13.14097 10.49514,-13.14097 6.96735,0 10.49513,4.32153 10.49513,13.14097 0,8.81944 -3.52778,13.22916 -10.49513,13.22916 z m 0,9.61319 c 13.49374,0 22.0486,-9.08402 22.0486,-22.84235 0,-13.84652 -8.46667,-22.84235 -22.0486,-22.84235 -13.75833,0 -22.31319,9.08402 -22.31319,22.84235 0,13.49374 8.29028,22.84235 22.31319,22.84235 z m 37.65897,-1.14653 v -22.57776 c 0,-6.96736 3.43958,-10.49514 10.49513,-10.49514 1.05833,0 2.11667,0.0882 3.175,0.26459 v -11.72986 h -1.49931 c -4.6743,0 -9.08402,0.52917 -12.87638,6.35 v -5.20347 h -10.75972 v 43.39164 z m 41.45129,-17.2861 c 0,5.37986 -2.11666,8.46666 -6.70277,8.46666 -4.6743,0 -6.61458,-3.175 -6.61458,-8.64305 v -17.81527 h 23.98888 v -8.11388 h -23.98888 v -11.72986 h -11.28888 v 38.80554 c 0,9.3486 5.02708,17.46249 17.72707,17.46249 12.25902,0 17.55069,-8.20208 17.55069,-17.3743 v -12.34721 h -10.67153 z"
       id="text1"
       style="font-size:88.1944px;font-family:Coolvetica;-inkscape-font-specification:Coolvetica;fill:#242122;stroke-width:0.933"
       aria-label="smort" /></g></svg>
